# xmcd
#
# Track frame offsets:
#	150
#	14660
#	28860
#	42063
#	59380
#	72505
#	83920
#	100968
#	116798
#	130903
#	150348
#	166395
#	183505
#	200300
#	212803
#	227470
#	247123
#	262665
#	273430
#	289025
#
# Disc length: 4006 seconds
#
# Revision: 1042428213
# Processed by: cddbd v1.5.2PL0 Copyright (c) Steve Scherf et al.
# Submitted via: EZCDAudioConverter 8.3.2.1
#
DISCID=1d0fa414
DTITLE=Various Artist - AKTUELL COUNTRY
DYEAR=1995
DGENRE=Svensk
TTITLE0=REDNEX - COTTON EYE JOE
TTITLE1=INGER NORDSTRÖM and RHINESTONE BAND - LIVING WITH A BROKEN HEART
TTITLE2=SIGGE HILL - JENNY
TTITLE3=MATS RÅDBERG - CROCODILE SHOES
TTITLE4=KIKKI DANIELSSON - A WAY WITH A BROKEN HEART
TTITLE5=BO GRAN SVENSSON - FÖRBANNAD
TTITLE6=ENDLESS ROAD - I JUST CAN STAND THAT
TTITLE7=MATS RÅDBERG - BYE BYE DREAMER
TTITLE8=INGER NORDSTRÖM and RHINESTONE BAND - SYLVIE MARIE
TTITLE9=GUNNAR BÄCKE - ALLTID PÅ VÄG
TTITLE10=REDNEX - OLD POP IN AN OAK
TTITLE11=SIGGE HILL - MNEN I SEPTEMBER
TTITLE12=BO GRAN SVENSSON - 400 SPÄNN
TTITLE13=MATS RÅDBERG and RANKARNA - APPARATEN
TTITLE14=JAKE AND THE SPINFIRES - WINDSHIELD
TTITLE15=CROSSING KEYS - YOU'RE NOT THE ONLY ONE
TTITLE16=GUNNAR BÄCKE - DET REGNAR DÄR UTE
TTITLE17=KENTUCKY - RAWHIDE
TTITLE18=MATS RÅDBERG - WHEN YOUR HEARTACHE IS OVER
TTITLE19=INGER NORDSTRÖM and RHINESTONE BAND - GIVE A LITTLE BACK
EXTD=
EXTT0=
EXTT1=
EXTT2=
EXTT3=
EXTT4=
EXTT5=
EXTT6=
EXTT7=
EXTT8=
EXTT9=
EXTT10=
EXTT11=
EXTT12=
EXTT13=
EXTT14=
EXTT15=
EXTT16=
EXTT17=
EXTT18=
EXTT19=
PLAYORDER=
